<?xml version="1.0" encoding="UTF-8"?>
<svg id="Layer_1" xmlns="http://www.w3.org/2000/svg" version="1.1" viewBox="0 0 1480 500">
  <!-- Generator: Adobe Illustrator 29.5.1, SVG Export Plug-In . SVG Version: 2.1.0 Build 141)  -->
  <path d="M486.63,66.3l-60.2-50.01c-26.11-21.7-63.99-21.7-90.09,0l-72.83,60.49-72.77-60.49c-26.11-21.7-63.93-21.73-90.06-.06l-60.35,50.07C17.46,85.27,4.25,113.43,4.25,143.15v124.55c0,29.66,13.19,57.79,36,76.75l159.36,132.49c37,30.75,90.68,30.75,127.65,0l159.36-132.49c22.83-18.98,36.03-47.13,36.03-76.81v-124.54c0-29.66-13.21-57.82-36.03-76.79ZM475.67,259.41c0,20.94-9.34,40.82-25.43,54.21l-141.74,117.84c-26.11,21.7-63.99,21.7-90.12,0l-141.74-117.84c-16.09-13.39-25.4-33.27-25.4-54.21v-108c0-20.97,9.34-40.85,25.49-54.24l42.7-35.41c15.24-12.66,37.32-12.63,52.53.03l54.79,45.55-79.96,66.39c-19.76,16.44-19.79,46.78-.03,63.22l90.24,75.2c15.24,12.69,37.35,12.72,52.59.03l90.5-75.23c19.76-16.44,19.76-46.78,0-63.22l-43.94-36.52c-2.18-1.81-5.33-1.81-7.51,0l-27.57,22.9c-2.83,2.35-2.83,6.69,0,9.03l32.68,27.17c5.67,4.7,5.67,13.36,0,18.06l-62.9,52.33c-4.38,3.61-10.69,3.61-15.04-.03l-62.72-52.27c-5.64-4.7-5.64-13.36.03-18.06l50.77-42.17,12.1-10.04,44.25-36.76,35.15-29.19,19.7-16.39c15.24-12.66,37.32-12.66,52.53,0l42.61,35.38c16.09,13.39,25.43,33.24,25.43,54.21v108.03Z"/>
  <g>
    <path d="M707.33,52.27h113c2.89,0,5.23,2.34,5.23,5.23v34.2c0,2.89-2.34,5.23-5.23,5.23h-106.41c-22.39,0-40.55,18.15-40.55,40.55v36.15c0,2.89,2.34,5.23,5.23,5.23h117.67c2.89,0,5.23,2.34,5.23,5.23v31.72c0,2.89-2.34,5.23-5.23,5.23h-117.67c-2.89,0-5.23,2.34-5.23,5.23v120.64c0,2.89-2.34,5.23-5.23,5.23h-36.68c-2.89,0-5.23-2.34-5.23-5.23v-213.55c0-44.79,36.31-81.1,81.1-81.1Z"/>
    <path d="M1219.88,150.75c-13.51-12.13-31.99-18.2-55.42-18.2-.64,0-1.28.01-1.92.03-.62-.01-1.24-.03-1.87-.03-22.97,0-43.83,9.05-59.2,23.78-1.66,1.59-4.42.42-4.42-1.88v-10.88c0-2.89-2.34-5.23-5.23-5.23h-34.2c-2.89,0-5.23,2.34-5.23,5.23v203.35c0,2.89,2.34,5.23,5.23,5.23h36.68c2.89,0,5.23-2.34,5.23-5.23v-120.91c0-7.72,1.24-15.02,3.72-21.92,2.48-6.89,5.93-12.89,10.34-17.99,4.41-5.1,9.78-9.1,16.13-11.99,6.34-2.89,13.51-4.34,21.51-4.34,14.06,0,24.4,3.79,31.02,11.37,6.62,7.59,10.2,19.79,10.75,36.6v129.18c0,2.89,2.34,5.23,5.23,5.23h36.68c2.89,0,5.23-2.34,5.23-5.23v-141.58c0-24.26-6.76-42.46-20.26-54.59Z"/>
    <path d="M1017.79,143.51v227.99c0,44.8-36.31,81.11-81.09,81.11h-90.01c-2.89,0-5.24-2.35-5.24-5.24v-34.19c0-2.89,2.35-5.24,5.24-5.24h83.41c22.4,0,43.02-18.59,43.02-40.99v-30.86c0-2.32-2.78-3.54-4.47-1.93-15.37,14.69-36.21,23.73-59.15,23.73-.63,0-1.25-.01-1.88-.03-.63.01-1.27.03-1.9.03-23.43,0-41.91-6.06-55.43-18.19-13.51-12.15-20.27-30.33-20.27-54.6v-141.59c0-2.88,2.35-5.23,5.24-5.23h36.68c2.89,0,5.23,2.35,5.23,5.23v129.19c.56,16.81,4.14,29.02,10.76,36.59,6.62,7.59,16.96,11.37,31.02,11.37,7.99,0,15.17-1.45,21.5-4.34,6.34-2.89,11.73-6.89,16.13-11.99,4.41-5.11,7.86-11.1,10.34-17.99,2.48-6.9,3.72-14.21,3.72-21.93v-120.91c0-2.88,2.35-5.23,5.23-5.23h36.69c2.88,0,5.23,2.35,5.23,5.23Z"/>
    <path d="M1428.61,57.51v97.02c0,2.3-2.75,3.48-4.41,1.89-7.86-7.55-17.16-13.6-27.44-17.73-.34-.16-.7-.33-1.1-.49-23.44-9.76-53.14-4.57-53.14-4.57v.02c-6.73,1.03-13.4,2.79-20,5.32-11.17,4.28-21.09,10.96-29.78,20.06-8.68,9.1-15.65,20.68-20.89,34.74-5.24,14.06-7.86,30.75-7.86,50.04,0,15.99,2.07,30.95,6.2,44.87,4.14,13.93,10.34,25.99,18.61,36.19,8.27,10.2,18.67,18.27,31.22,24.19,12.54,5.93,27.22,8.89,44.04,8.89.43,0,.85-.03,1.28-.03.69.02,1.38.03,2.07.03,22.98,0,43.85-9.06,59.22-23.8,1.66-1.6,4.42-.43,4.42,1.88v10.9c0,2.89,2.34,5.23,5.23,5.23h34.2c2.89,0,5.23-2.34,5.23-5.23V57.51c0-2.89-2.34-5.23-5.23-5.23h-36.68c-2.89,0-5.23,2.34-5.23,5.23ZM1325.42,297.98c-4.83-6.89-8.41-14.75-10.75-23.57-2.35-8.82-3.52-17.78-3.52-26.88,0-9.65,1.03-19.09,3.1-28.33,2.07-9.23,5.51-17.51,10.34-24.81,4.82-7.3,11.02-13.23,18.61-17.78,7.58-4.55,16.89-6.82,27.92-6.82,18.2,0,32.6,6.62,43.22,19.85,10.61,13.23,15.92,31.71,15.92,55.42,0,9.38-1.18,18.55-3.52,27.5-2.35,8.96-5.93,17.03-10.75,24.19-4.83,7.17-11.03,12.96-18.61,17.37-7.59,4.41-16.61,6.62-27.09,6.62s-19.02-2.07-26.47-6.2c-7.44-4.14-13.58-9.65-18.4-16.54Z"/>
  </g>
</svg>
